<?xml version="1.0" encoding="UTF-8" standalone="no"?>
<!DOCTYPE svg PUBLIC "-//W3C//DTD SVG 20010904//EN"
              "http://www.w3.org/TR/2001/REC-SVG-20010904/DTD/svg10.dtd">

<svg xmlns="http://www.w3.org/2000/svg"
     width="0.75in" height="1.53in"
     viewBox="0 0 75 153">
  <path id="Selection"
        fill="none" stroke="black" stroke-width="1"
        d="M 34.00,4.90
           C 36.89,3.31 39.80,2.39 43.00,1.66
             48.97,0.32 52.92,-0.03 59.00,0.00
             59.00,0.00 74.00,1.00 74.00,1.00
             74.00,1.00 74.00,26.00 74.00,26.00
             67.67,26.00 53.81,24.50 49.43,29.28
             45.52,33.54 47.00,48.97 47.00,55.00
             47.00,55.00 74.00,55.00 74.00,55.00
             74.00,55.00 73.00,82.00 73.00,82.00
             73.00,82.00 47.00,82.00 47.00,82.00
             47.00,82.00 47.00,153.00 47.00,153.00
             47.00,153.00 18.00,153.00 18.00,153.00
             18.00,153.00 18.00,82.00 18.00,82.00
             18.00,82.00 0.00,82.00 0.00,82.00
             0.00,82.00 0.00,55.00 0.00,55.00
             0.00,55.00 18.00,55.00 18.00,55.00
             18.00,37.13 15.58,15.07 34.00,4.90 Z" />
</svg>
