<?xml version="1.0" encoding="UTF-8" standalone="no"?>
<!DOCTYPE svg PUBLIC "-//W3C//DTD SVG 20010904//EN"
              "http://www.w3.org/TR/2001/REC-SVG-20010904/DTD/svg10.dtd">

<svg xmlns="http://www.w3.org/2000/svg"
     width="1.83in" height="1.54in"
     viewBox="0 0 183 154">
  <path id="Selection"
        fill="none" stroke="black" stroke-width="1"
        d="M 25.00,64.24
           C 8.72,53.44 4.68,30.16 17.33,15.00
             32.87,-3.61 54.50,0.00 76.00,0.00
             81.66,0.00 95.40,-0.82 100.00,1.00
             100.00,1.00 89.00,8.44 89.00,8.44
             89.00,8.44 78.00,10.00 78.00,10.00
             92.68,18.60 92.01,42.94 82.32,54.96
             78.43,59.80 68.34,66.02 67.56,72.00
             66.73,78.31 78.53,87.07 83.00,90.66
             91.82,97.75 95.87,105.70 96.00,117.00
             96.05,121.63 96.14,124.51 94.64,129.00
             89.33,144.91 70.90,153.81 55.00,154.00
             55.00,154.00 41.00,154.00 41.00,154.00
             30.98,153.88 16.93,150.01 9.04,143.76
             6.64,141.87 4.23,139.57 2.61,136.96
             0.01,132.78 -0.10,128.76 0.01,124.00
             0.36,109.61 13.40,99.20 26.00,94.70
             35.20,91.41 43.38,91.00 53.00,91.00
             47.96,83.15 46.74,78.92 50.00,70.00
             40.78,70.00 33.02,69.56 25.00,64.24 Z
           M 151.00,0.00
           C 151.00,0.00 151.00,30.00 151.00,30.00
             151.00,30.00 183.00,30.00 183.00,30.00
             183.00,30.00 183.00,39.00 183.00,39.00
             183.00,39.00 151.00,39.00 151.00,39.00
             151.00,39.00 151.00,70.00 151.00,70.00
             151.00,70.00 143.00,70.00 143.00,70.00
             143.00,70.00 143.00,39.00 143.00,39.00
             143.00,39.00 113.00,39.00 113.00,39.00
             113.00,39.00 113.00,30.00 113.00,30.00
             113.00,30.00 143.00,30.00 143.00,30.00
             143.00,30.00 143.00,0.00 143.00,0.00
             143.00,0.00 151.00,0.00 151.00,0.00 Z
           M 28.00,32.00
           C 28.17,46.71 39.33,65.47 56.00,63.90
             66.45,62.91 71.01,52.22 71.83,43.00
             73.20,27.46 61.21,6.90 44.00,7.34
             30.51,9.80 27.87,20.03 28.00,32.00 Z
           M 28.00,103.79
           C 25.56,105.54 23.40,107.56 21.64,110.00
             11.07,124.69 23.91,145.43 48.00,145.99
             53.82,146.12 61.47,145.08 67.00,143.25
             81.00,138.61 88.37,122.06 78.61,110.04
             76.55,107.51 73.64,105.33 71.00,103.43
             61.45,96.57 55.44,96.16 44.00,97.30
             38.02,98.43 33.00,100.19 28.00,103.79 Z" />
</svg>
