<?xml version="1.0" encoding="UTF-8" standalone="no"?>
<!DOCTYPE svg PUBLIC "-//W3C//DTD SVG 20010904//EN"
              "http://www.w3.org/TR/2001/REC-SVG-20010904/DTD/svg10.dtd">

<svg xmlns="http://www.w3.org/2000/svg"
     width="7.16667in" height="10.3889in"
     viewBox="0 0 516 748">
  <path id="Path"
        fill="none" stroke="black" stroke-width="1"
        d="M 85.34,695.22
           C 85.34,695.22 112.31,695.22 112.31,695.22
             112.31,695.22 112.31,701.94 112.31,701.94
             112.31,701.94 110.98,702.09 110.98,702.09
             106.67,702.59 105.77,703.73 105.77,708.98
             105.77,708.98 105.77,726.00 105.77,726.00
             105.77,726.00 96.72,726.00 96.72,726.00
             96.72,726.00 94.81,720.25 94.81,720.25
             91.48,722.30 90.25,723.03 89.17,723.59
             85.92,725.08 81.53,726.00 77.70,726.00
             70.88,726.00 64.31,723.55 59.81,719.22
             54.33,714.03 51.00,705.22 51.00,696.05
             51.00,678.48 62.66,666.00 79.12,666.00
             83.94,666.00 90.16,667.67 93.56,669.89
             93.56,669.89 94.81,668.56 94.81,668.56
             94.81,668.56 100.11,668.56 100.11,668.56
             100.11,668.56 105.19,686.88 105.19,686.88
             105.19,686.88 99.20,688.92 99.20,688.92
             96.80,684.66 95.39,682.61 93.47,680.73
             89.91,677.12 85.25,675.00 80.69,675.00
             72.47,675.00 67.00,683.84 67.00,697.11
             67.00,708.81 72.89,717.00 81.36,717.00
             87.33,717.00 92.64,712.41 92.64,707.25
             92.64,703.73 90.23,702.02 85.34,701.94
             85.34,701.94 85.34,695.22 85.34,695.22 Z
           M 122.00,682.06
           C 122.00,678.88 121.75,677.62 121.00,676.78
             120.25,675.86 118.34,675.19 116.36,675.03
             116.36,675.03 114.36,674.86 114.36,674.86
             114.36,674.86 114.36,668.00 114.36,668.00
             114.36,668.00 144.64,668.00 144.64,668.00
             144.64,668.00 144.64,674.86 144.64,674.86
             144.64,674.86 142.64,675.03 142.64,675.03
             140.66,675.19 138.75,675.86 138.00,676.78
             137.25,677.62 137.00,678.88 137.00,682.06
             137.00,682.06 137.00,710.94 137.00,710.94
             137.00,714.12 137.25,715.38 138.00,716.22
             138.75,717.14 140.66,717.81 142.64,717.97
             142.64,717.97 144.64,718.14 144.64,718.14
             144.64,718.14 144.64,725.00 144.64,725.00
             144.64,725.00 114.36,725.00 114.36,725.00
             114.36,725.00 114.36,718.14 114.36,718.14
             114.36,718.14 116.36,717.97 116.36,717.97
             118.34,717.81 120.25,717.14 121.00,716.22
             121.75,715.38 122.00,714.12 122.00,710.94
             122.00,710.94 122.00,682.06 122.00,682.06 Z
           M 200.44,674.17
           C 206.84,679.61 210.00,686.78 210.00,696.05
             210.00,713.06 196.45,726.00 178.67,726.00
             171.36,726.00 165.55,724.08 160.05,719.98
             152.66,714.39 149.00,706.80 149.00,697.03
             149.00,679.69 161.97,667.00 179.75,667.00
             187.73,667.00 194.88,669.50 200.44,674.17 Z
           M 165.00,696.70
           C 165.00,702.58 166.58,708.44 169.06,711.95
             171.30,715.05 175.27,717.00 179.33,717.00
             188.11,717.00 194.00,708.61 194.00,696.22
             194.00,683.50 188.70,676.00 179.83,676.00
             171.05,676.00 165.00,684.39 165.00,696.70 Z
           M 221.00,682.06
           C 221.00,678.88 220.75,677.62 220.00,676.78
             219.25,675.86 217.34,675.19 215.36,675.03
             215.36,675.03 213.36,674.86 213.36,674.86
             213.36,674.86 213.36,668.00 213.36,668.00
             213.36,668.00 243.64,668.00 243.64,668.00
             243.64,668.00 243.64,674.86 243.64,674.86
             243.64,674.86 241.64,675.03 241.64,675.03
             239.66,675.19 237.75,675.86 237.00,676.78
             236.25,677.62 236.00,678.88 236.00,682.06
             236.00,682.06 236.00,710.94 236.00,710.94
             236.00,714.12 236.25,715.38 237.00,716.22
             237.75,717.14 239.66,717.81 241.64,717.97
             241.64,717.97 243.64,718.14 243.64,718.14
             243.64,718.14 243.64,725.00 243.64,725.00
             243.64,725.00 213.36,725.00 213.36,725.00
             213.36,725.00 213.36,718.14 213.36,718.14
             213.36,718.14 215.36,717.97 215.36,717.97
             217.34,717.81 219.25,717.14 220.00,716.22
             220.75,715.38 221.00,714.12 221.00,710.94
             221.00,710.94 221.00,682.06 221.00,682.06 Z
           M 286.27,707.30
           C 286.27,707.30 279.80,707.30 279.80,707.30
             279.30,703.50 278.31,700.70 277.00,699.44
             275.92,698.42 274.19,698.00 271.31,698.00
             271.31,698.00 269.00,698.00 269.00,698.00
             269.00,698.00 269.00,707.98 269.00,707.98
             269.00,713.56 269.00,714.66 269.33,715.50
             269.91,716.86 272.08,717.53 275.81,717.53
             285.27,717.53 292.48,712.97 299.70,702.39
             299.70,702.39 305.52,705.19 305.52,705.19
             305.52,705.19 296.39,725.00 296.39,725.00
             296.39,725.00 246.70,725.00 246.70,725.00
             246.70,725.00 246.70,718.19 246.70,718.19
             246.70,718.19 248.36,718.02 248.36,718.02
             253.00,717.52 254.00,716.33 254.00,710.94
             254.00,710.94 254.00,681.84 254.00,681.84
             254.00,676.61 253.00,675.47 248.36,674.97
             248.36,674.97 246.70,674.81 246.70,674.81
             246.70,674.81 246.70,668.00 246.70,668.00
             246.70,668.00 294.98,668.00 294.98,668.00
             294.98,668.00 303.20,684.94 303.20,684.94
             303.20,684.94 297.55,687.72 297.55,687.72
             291.98,679.80 285.02,675.47 277.72,675.47
             273.44,675.47 270.56,676.05 269.73,677.09
             269.08,677.92 269.00,678.73 269.00,683.06
             269.00,683.06 269.00,690.00 269.00,690.00
             269.00,690.00 271.33,690.00 271.33,690.00
             275.14,690.00 276.56,689.75 277.56,689.02
             279.05,687.88 279.72,685.52 279.80,681.11
             279.80,681.11 286.27,681.11 286.27,681.11
             286.27,681.11 286.27,707.30 286.27,707.30 Z
           M 352.33,725.00
           C 352.33,725.00 306.70,725.00 306.70,725.00
             306.70,725.00 306.70,718.19 306.70,718.19
             306.70,718.19 308.36,718.02 308.36,718.02
             313.00,717.52 314.00,716.34 314.00,711.00
             314.00,711.00 314.00,682.08 314.00,682.08
             314.00,676.72 313.00,675.55 308.36,675.05
             308.36,675.05 306.70,674.88 306.70,674.88
             306.70,674.88 306.70,668.00 306.70,668.00
             306.70,668.00 336.30,668.00 336.30,668.00
             336.30,668.00 336.30,674.88 336.30,674.88
             336.30,674.88 334.64,675.05 334.64,675.05
             330.00,675.55 329.00,676.72 329.00,682.08
             329.00,682.08 329.00,709.91 329.00,709.91
             329.00,715.19 329.00,715.19 329.33,715.94
             329.83,716.94 331.58,717.53 334.06,717.53
             342.28,717.53 349.59,712.17 355.23,702.03
             355.23,702.03 360.95,705.12 360.95,705.12
             360.95,705.12 352.33,725.00 352.33,725.00 Z
           M 405.33,725.00
           C 405.33,725.00 359.70,725.00 359.70,725.00
             359.70,725.00 359.70,718.19 359.70,718.19
             359.70,718.19 361.36,718.02 361.36,718.02
             366.00,717.52 367.00,716.34 367.00,711.00
             367.00,711.00 367.00,682.08 367.00,682.08
             367.00,676.72 366.00,675.55 361.36,675.05
             361.36,675.05 359.70,674.88 359.70,674.88
             359.70,674.88 359.70,668.00 359.70,668.00
             359.70,668.00 389.30,668.00 389.30,668.00
             389.30,668.00 389.30,674.88 389.30,674.88
             389.30,674.88 387.64,675.05 387.64,675.05
             383.00,675.55 382.00,676.72 382.00,682.08
             382.00,682.08 382.00,709.91 382.00,709.91
             382.00,715.19 382.00,715.19 382.33,715.94
             382.83,716.94 384.58,717.53 387.06,717.53
             395.28,717.53 402.59,712.17 408.23,702.03
             408.23,702.03 413.95,705.12 413.95,705.12
             413.95,705.12 405.33,725.00 405.33,725.00 Z
           M 420.00,682.06
           C 420.00,678.88 419.75,677.62 419.00,676.78
             418.25,675.86 416.34,675.19 414.36,675.03
             414.36,675.03 412.36,674.86 412.36,674.86
             412.36,674.86 412.36,668.00 412.36,668.00
             412.36,668.00 442.64,668.00 442.64,668.00
             442.64,668.00 442.64,674.86 442.64,674.86
             442.64,674.86 440.64,675.03 440.64,675.03
             438.66,675.19 436.75,675.86 436.00,676.78
             435.25,677.62 435.00,678.88 435.00,682.06
             435.00,682.06 435.00,710.94 435.00,710.94
             435.00,714.12 435.25,715.38 436.00,716.22
             436.75,717.14 438.66,717.81 440.64,717.97
             440.64,717.97 442.64,718.14 442.64,718.14
             442.64,718.14 442.64,725.00 442.64,725.00
             442.64,725.00 412.36,725.00 412.36,725.00
             412.36,725.00 412.36,718.14 412.36,718.14
             412.36,718.14 414.36,717.97 414.36,717.97
             416.34,717.81 418.25,717.14 419.00,716.22
             419.75,715.38 420.00,714.12 420.00,710.94
             420.00,710.94 420.00,682.06 420.00,682.06 Z
           M 516.00,0.00
           C 516.00,0.00 516.00,748.00 516.00,748.00
             516.00,748.00 0.00,748.00 0.00,748.00
             0.00,748.00 0.00,0.00 0.00,0.00
             0.00,0.00 516.00,0.00 516.00,0.00 Z
           M 198.67,206.98
           C 199.19,200.28 188.30,192.41 189.22,187.17
             189.46,185.78 196.12,175.84 197.34,174.04
             204.79,163.09 212.06,149.68 208.81,136.00
             207.53,130.64 205.24,124.76 199.83,122.33
             192.84,119.18 184.47,126.79 180.72,132.00
             179.48,133.73 177.42,137.02 176.72,139.00
             175.03,143.72 171.72,169.38 171.62,175.03
             171.62,175.03 172.57,183.00 172.57,183.00
             172.47,187.03 169.02,190.62 165.70,186.80
             162.71,183.36 162.03,169.87 161.68,165.00
             161.63,161.02 160.59,156.93 161.68,153.00
             162.67,148.46 171.42,135.04 174.22,130.00
             180.41,118.86 187.81,102.66 189.50,90.00
             191.13,77.77 183.29,59.12 171.00,54.91
             167.46,53.58 163.82,54.45 160.00,54.91
             156.27,57.55 151.27,64.18 148.55,75.00
             148.55,75.00 147.72,82.00 147.72,82.00
             147.72,82.00 146.73,93.27 146.73,93.27
             146.73,93.27 145.73,104.82 145.73,104.82
             145.73,104.82 145.00,117.00 145.00,117.00
             145.00,117.00 144.16,138.00 144.16,138.00
             144.16,138.00 142.90,152.00 142.90,152.00
             140.97,158.85 137.75,160.00 133.00,167.00
             133.00,167.00 126.50,173.50 126.50,173.50
             118.25,181.25 116.17,181.80 114.11,190.00
             112.72,195.53 115.24,201.70 122.00,199.39
             125.32,198.25 127.87,194.54 130.17,192.00
             130.17,192.00 148.00,173.00 148.00,173.00
             148.00,173.00 149.00,182.50 149.00,182.50
             151.00,194.50 149.42,204.83 160.00,210.00
             160.00,210.00 166.75,208.75 166.75,208.75
             174.00,204.25 172.43,201.11 176.32,201.39
             178.07,201.51 185.45,211.05 187.00,213.00
             191.57,212.67 198.17,213.32 198.67,206.98 Z
           M 175.00,73.00
           C 178.45,81.76 174.51,103.91 171.49,113.00
             170.01,117.42 168.70,123.36 164.00,125.00
             161.56,114.98 163.72,103.97 165.58,94.00
             166.30,90.09 167.27,85.73 168.55,82.00
             170.91,76.27 170.65,77.08 173.00,73.00
             173.00,73.00 175.00,73.00 175.00,73.00 Z
           M 194.00,140.00
           C 192.38,148.44 193.92,158.74 187.00,165.00
             184.28,156.54 186.69,147.47 191.00,140.00
             191.00,140.00 194.00,140.00 194.00,140.00 Z
           M 142.00,330.00
           C 142.00,330.00 141.00,308.00 141.00,308.00
             141.00,308.00 141.00,285.00 141.00,285.00
             141.00,285.00 140.00,268.00 140.00,268.00
             140.00,268.00 140.00,239.00 140.00,239.00
             139.93,233.33 136.57,219.12 128.18,221.70
             123.00,223.30 120.89,235.24 120.00,240.00
             120.00,240.00 117.51,249.00 117.51,249.00
             117.51,249.00 113.65,266.00 113.65,266.00
             113.65,266.00 107.58,293.00 107.58,293.00
             107.58,293.00 91.35,361.00 91.35,361.00
             91.35,361.00 82.84,395.00 82.84,395.00
             82.84,395.00 79.63,412.00 79.63,412.00
             79.63,412.00 74.37,436.00 74.37,436.00
             74.37,436.00 71.77,446.00 71.77,446.00
             71.77,446.00 60.23,497.00 60.23,497.00
             58.70,503.20 56.54,516.41 53.00,521.00
             53.27,522.70 53.60,524.26 53.50,526.00
             53.24,530.51 48.91,540.80 48.22,555.00
             47.91,561.55 50.63,567.71 56.17,571.45
             61.80,575.26 70.37,573.49 73.15,566.96
             73.95,565.08 74.05,562.97 74.52,561.00
             74.52,561.00 76.88,553.00 76.88,553.00
             76.88,553.00 79.91,535.58 79.91,535.58
             79.91,535.58 93.96,464.04 93.96,464.04
             93.96,464.04 99.96,431.00 99.96,431.00
             102.77,421.80 102.10,420.83 103.29,412.00
             103.29,412.00 105.56,400.00 105.56,400.00
             105.56,400.00 106.71,392.00 106.71,392.00
             107.86,387.47 110.92,375.93 109.00,372.00
             113.53,366.80 112.50,359.41 113.36,353.00
             113.36,353.00 116.28,338.00 116.28,338.00
             117.18,331.33 117.26,325.29 124.84,324.00
             123.10,331.82 124.68,337.41 124.84,345.00
             124.84,345.00 124.84,351.00 124.84,351.00
             124.84,351.00 124.84,361.00 124.84,361.00
             124.84,361.00 124.84,369.00 124.84,369.00
             124.84,369.00 124.84,453.00 124.84,453.00
             124.84,453.00 124.84,482.00 124.84,482.00
             126.05,489.44 123.57,490.49 131.00,493.00
             131.00,493.00 138.50,467.00 138.50,467.00
             138.50,467.00 142.27,448.01 142.27,448.01
             142.27,448.01 152.59,409.00 152.59,409.00
             152.59,409.00 154.69,399.00 154.69,399.00
             154.69,399.00 158.59,386.72 158.59,386.72
             158.59,386.72 160.04,379.00 160.04,379.00
             160.04,379.00 164.90,361.00 164.90,361.00
             164.90,361.00 168.00,349.00 168.00,349.00
             168.00,349.00 167.48,362.00 167.48,362.00
             167.48,362.00 168.27,369.00 168.27,369.00
             168.27,369.00 168.27,378.17 168.27,378.17
             168.27,378.17 170.00,395.00 170.00,395.00
             170.00,395.00 171.09,419.00 171.09,419.00
             171.09,419.00 173.00,449.00 173.00,449.00
             173.00,449.00 175.00,486.00 175.00,486.00
             175.00,486.00 176.00,516.00 176.00,516.00
             176.00,516.00 177.00,534.00 177.00,534.00
             177.00,534.00 179.67,566.00 179.67,566.00
             180.45,569.56 182.23,574.27 186.16,575.38
             188.89,576.16 191.73,574.55 194.00,573.00
             196.27,570.36 199.44,564.19 200.41,557.72
             201.12,552.97 200.86,548.48 200.27,543.91
             200.27,543.91 199.12,527.00 199.12,527.00
             199.12,527.00 197.81,499.99 197.81,499.99
             197.81,499.99 197.00,489.00 197.00,489.00
             197.00,489.00 195.76,453.97 195.76,453.97
             195.76,453.97 194.93,444.00 194.93,444.00
             194.93,444.00 193.45,416.09 193.45,416.09
             193.45,416.09 192.94,405.00 192.94,405.00
             192.94,405.00 192.55,392.91 192.55,392.91
             192.55,392.91 191.85,378.72 191.85,378.72
             191.85,378.72 191.00,362.00 191.00,362.00
             191.00,362.00 189.45,331.00 189.45,331.00
             189.45,331.00 188.91,320.09 188.91,320.09
             188.91,320.09 188.61,314.00 188.61,314.00
             188.61,314.00 187.27,288.00 187.27,288.00
             187.27,288.00 186.36,263.73 186.36,263.73
             186.36,263.73 186.00,250.91 186.00,250.91
             186.00,250.91 183.88,227.00 183.88,227.00
             183.34,223.45 181.29,219.99 177.12,221.61
             173.31,223.10 173.33,227.66 172.49,231.00
             172.49,231.00 170.34,238.00 170.34,238.00
             170.34,238.00 166.58,256.00 166.58,256.00
             166.58,256.00 160.52,281.00 160.52,281.00
             160.52,281.00 157.32,297.00 157.32,297.00
             157.32,297.00 155.12,305.00 155.12,305.00
             155.12,305.00 143.00,359.00 143.00,359.00
             141.21,351.64 142.07,338.12 142.00,330.00 Z
           M 402.00,229.00
           C 402.00,229.00 389.65,250.08 389.65,250.08
             383.10,262.22 377.86,274.94 373.34,288.00
             373.34,288.00 366.35,309.00 366.35,309.00
             364.91,314.64 365.00,312.33 362.00,322.00
             356.00,352.00 362.00,322.00 356.00,351.33
             356.46,365.67 356.67,351.00 355.69,362.41
             355.00,373.00 355.08,365.77 354.67,372.00
             355.00,392.00 355.00,391.00 355.00,391.00
             354.95,425.72 357.66,455.75 368.61,489.00
             378.74,519.77 394.96,543.23 416.87,566.67
             419.03,568.98 432.57,581.02 435.04,582.28
             438.70,584.15 442.70,583.77 444.79,579.81
             447.33,574.97 438.81,565.47 436.11,561.28
             436.11,561.28 430.44,551.42 430.44,551.42
             430.44,551.42 420.63,535.72 420.63,535.72
             420.63,535.72 416.54,527.00 416.54,527.00
             416.54,527.00 411.68,519.00 411.68,519.00
             411.68,519.00 408.00,513.00 408.00,513.00
             408.00,513.00 402.00,499.00 402.00,499.00
             402.00,499.00 394.00,480.00 394.00,480.00
             394.00,480.00 391.96,473.99 391.96,473.99
             384.17,456.96 376.03,423.66 376.00,405.00
             376.00,405.00 376.00,386.00 376.00,386.00
             376.02,382.01 376.56,374.40 380.30,371.89
             382.86,370.39 387.12,371.51 390.00,371.89
             390.00,371.89 411.00,373.00 411.00,373.00
             414.84,372.95 417.57,372.80 420.60,370.20
             425.52,366.14 426.77,358.22 420.60,354.75
             417.61,353.12 408.83,354.01 405.00,354.00
             405.00,354.00 383.00,352.00 383.00,352.00
             383.35,345.68 388.45,330.92 390.44,324.00
             390.44,324.00 411.53,263.00 411.53,263.00
             411.53,263.00 420.50,244.00 420.50,244.00
             422.44,240.52 425.09,237.29 423.88,233.04
             422.83,229.34 418.61,226.84 416.00,224.00
             405.24,225.10 410.93,224.91 402.00,229.00 Z
           M 272.00,242.32
           C 261.42,243.49 263.99,251.31 264.13,262.09
             264.13,262.09 264.84,271.00 264.84,271.00
             264.84,271.00 264.84,286.00 264.84,286.00
             264.84,286.00 266.19,322.00 266.19,322.00
             266.19,322.00 266.19,330.00 266.19,330.00
             266.19,330.00 266.19,340.04 266.19,340.04
             266.19,340.04 266.91,352.00 266.91,352.00
             266.91,352.00 266.91,419.00 266.91,419.00
             266.91,419.00 266.91,429.00 266.91,429.00
             266.91,429.00 265.22,459.00 265.22,459.00
             265.22,459.00 264.20,481.28 264.20,481.28
             264.20,481.28 261.40,503.83 261.40,503.83
             259.94,515.79 262.31,509.87 258.37,525.00
             256.99,530.30 254.72,537.78 250.62,541.59
             240.39,551.13 232.95,528.63 231.34,522.00
             227.07,504.41 226.23,486.62 224.67,468.72
             224.67,468.72 222.68,434.00 222.68,434.00
             222.68,434.00 222.00,421.00 222.00,421.00
             222.00,421.00 222.00,377.00 222.00,377.00
             222.00,377.00 222.00,357.00 222.00,357.00
             222.00,357.00 222.86,345.00 222.86,345.00
             222.86,345.00 222.86,333.28 222.86,333.28
             222.86,333.28 223.96,322.00 223.96,322.00
             223.96,322.00 223.96,307.00 223.96,307.00
             223.96,307.00 224.56,298.00 224.56,298.00
             224.56,298.00 224.56,289.00 224.56,289.00
             224.56,289.00 226.04,261.00 226.04,261.00
             226.04,261.00 227.00,250.00 227.00,250.00
             227.00,250.00 227.00,243.00 227.00,243.00
             227.00,240.81 227.21,237.16 225.98,235.31
             223.92,232.21 214.58,230.91 210.98,236.33
             209.06,239.22 207.40,252.87 206.68,257.00
             203.76,273.80 201.87,290.93 201.04,308.00
             201.04,308.00 199.00,340.00 199.00,340.00
             199.00,340.00 199.00,390.00 199.00,390.00
             199.00,390.00 200.44,425.00 200.44,425.00
             200.44,425.00 202.36,446.00 202.36,446.00
             203.00,453.27 202.84,452.05 203.58,458.00
             203.58,458.00 205.26,478.58 205.26,478.58
             205.26,478.58 207.90,496.01 207.90,496.01
             207.90,496.01 210.92,509.58 210.92,509.58
             214.14,526.12 216.32,536.27 223.07,552.00
             223.07,552.00 225.80,559.58 225.80,559.58
             227.29,562.60 233.51,570.97 236.29,572.81
             247.78,580.44 257.02,574.39 264.06,564.71
             273.78,551.36 277.12,533.86 280.51,518.00
             280.51,518.00 282.57,508.00 282.57,508.00
             282.57,508.00 284.30,492.00 284.30,492.00
             284.30,492.00 285.25,486.00 285.25,486.00
             285.25,486.00 285.79,478.84 285.79,478.84
             285.79,478.84 288.03,455.99 288.03,455.99
             288.03,455.99 289.10,449.17 289.10,449.17
             289.10,449.17 289.50,437.25 289.50,437.25
             289.50,437.25 290.00,426.00 290.00,426.00
             290.00,426.00 290.25,399.50 290.25,399.50
             290.25,399.50 290.74,379.00 290.74,379.00
             290.74,379.00 290.74,357.00 290.74,357.00
             290.74,357.00 290.74,348.00 290.74,348.00
             290.74,348.00 290.74,343.00 290.74,343.00
             290.74,343.00 289.90,332.00 289.90,332.00
             289.90,332.00 289.90,326.00 289.90,326.00
             289.90,326.00 289.25,307.00 289.25,307.00
             289.25,307.00 288.87,296.00 288.87,296.00
             288.87,296.00 287.00,273.00 287.00,273.00
             286.95,262.42 286.38,253.37 281.00,244.00
             277.68,243.41 275.60,241.92 272.00,242.32 Z
           M 262.50,659.25
           C 262.50,659.25 269.00,656.87 269.00,656.87
             269.00,656.87 296.68,610.58 296.68,610.58
             296.68,610.58 314.80,575.17 314.80,575.17
             327.97,549.57 341.04,523.97 348.17,495.91
             352.10,480.48 353.25,466.80 350.80,451.00
             349.64,443.55 351.00,451.25 346.00,428.00
             339.75,413.25 341.08,418.13 339.58,413.00
             339.58,413.00 333.08,391.00 333.08,391.00
             324.46,359.00 314.91,320.70 325.34,288.00
             331.84,267.62 336.51,260.53 349.98,243.91
             352.13,241.27 357.03,233.09 353.39,230.02
             352.17,228.99 348.07,228.58 346.42,228.51
             335.63,228.06 327.47,242.03 321.98,250.00
             311.46,265.29 301.03,291.32 301.00,310.00
             301.00,310.00 301.00,321.00 301.00,321.00
             301.02,331.73 301.29,334.41 302.72,345.00
             303.25,348.92 302.75,345.00 304.00,356.25
             307.25,368.75 305.70,362.31 306.99,368.00
             306.99,368.00 312.41,390.00 312.41,390.00
             312.41,390.00 314.68,401.04 314.68,401.04
             314.68,401.04 317.08,408.00 317.08,408.00
             317.08,408.00 326.36,443.00 326.36,443.00
             326.36,443.00 330.48,468.00 330.48,468.00
             329.73,481.35 321.40,507.50 317.00,520.00
             317.00,520.00 294.63,570.00 294.63,570.00
             294.63,570.00 283.59,594.83 283.59,594.83
             280.75,600.94 283.75,595.00 276.75,608.25
             270.25,620.75 271.71,617.81 270.22,621.00
             270.22,621.00 256.28,649.00 256.28,649.00
             255.86,651.67 255.75,650.00 257.00,657.00
             257.00,657.00 262.50,659.25 262.50,659.25 Z" />
</svg>
