<?xml version="1.0" encoding="UTF-8" standalone="no"?>
<!DOCTYPE svg PUBLIC "-//W3C//DTD SVG 20010904//EN"
              "http://www.w3.org/TR/2001/REC-SVG-20010904/DTD/svg10.dtd">

<svg xmlns="http://www.w3.org/2000/svg"
     width="1.61111in" height="2.31944in"
     viewBox="0 0 116 167">
  <path id="Path"
        fill="none" stroke="black" stroke-width="1"
        d="M 19.18,156.72
           C 20.28,156.73 20.83,157.12 20.83,157.90
             20.83,159.05 19.63,160.08 18.29,160.08
             16.39,160.08 15.06,158.25 15.06,155.64
             15.06,152.68 16.29,150.70 18.14,150.70
             19.16,150.70 20.21,151.18 21.01,151.98
             21.44,152.40 21.76,152.86 22.30,153.81
             22.30,153.81 23.65,153.35 23.65,153.35
             23.65,153.35 22.51,149.26 22.51,149.26
             22.51,149.26 21.31,149.26 21.31,149.26
             21.31,149.26 21.03,149.56 21.03,149.56
             20.27,149.07 18.87,148.69 17.79,148.69
             14.09,148.69 11.47,151.48 11.47,155.40
             11.47,157.45 12.21,159.42 13.45,160.57
             14.46,161.54 15.93,162.09 17.47,162.09
             18.33,162.09 19.32,161.88 20.05,161.55
             20.29,161.43 20.57,161.26 21.31,160.80
             21.31,160.80 21.74,162.09 21.74,162.09
             21.74,162.09 23.78,162.09 23.78,162.09
             23.78,162.09 23.78,158.29 23.78,158.29
             23.78,157.12 23.98,156.86 24.95,156.75
             24.95,156.75 25.25,156.72 25.25,156.72
             25.25,156.72 25.25,155.22 25.25,155.22
             25.25,155.22 19.18,155.22 19.18,155.22
             19.18,155.22 19.18,156.72 19.18,156.72 Z
           M 27.43,158.73
           C 27.43,159.44 27.37,159.72 27.20,159.90
             27.03,160.11 26.60,160.26 26.16,160.30
             26.16,160.30 25.71,160.33 25.71,160.33
             25.71,160.33 25.71,161.86 25.71,161.86
             25.71,161.86 32.52,161.86 32.52,161.86
             32.52,161.86 32.52,160.33 32.52,160.33
             32.52,160.33 32.07,160.30 32.07,160.30
             31.62,160.26 31.19,160.11 31.02,159.90
             30.85,159.72 30.80,159.44 30.80,158.73
             30.80,158.73 30.80,152.28 30.80,152.28
             30.80,151.57 30.85,151.29 31.02,151.10
             31.19,150.89 31.62,150.74 32.07,150.71
             32.07,150.71 32.52,150.67 32.52,150.67
             32.52,150.67 32.52,149.14 32.52,149.14
             32.52,149.14 25.71,149.14 25.71,149.14
             25.71,149.14 25.71,150.67 25.71,150.67
             25.71,150.67 26.16,150.71 26.16,150.71
             26.60,150.74 27.03,150.89 27.20,151.10
             27.37,151.29 27.43,151.57 27.43,152.28
             27.43,152.28 27.43,158.73 27.43,158.73 Z
           M 40.41,148.92
           C 36.41,148.92 33.50,151.75 33.50,155.62
             33.50,157.80 34.32,159.50 35.98,160.74
             37.22,161.66 38.52,162.09 40.17,162.09
             44.16,162.09 47.21,159.20 47.21,155.40
             47.21,153.33 46.50,151.73 45.06,150.52
             43.81,149.47 42.20,148.92 40.41,148.92 Z
           M 40.43,150.93
           C 42.42,150.93 43.61,152.60 43.61,155.44
             43.61,158.21 42.29,160.08 40.31,160.08
             39.40,160.08 38.51,159.64 38.01,158.95
             37.45,158.17 37.09,156.86 37.09,155.55
             37.09,152.80 38.45,150.93 40.43,150.93 Z
           M 49.68,158.73
           C 49.68,159.44 49.63,159.72 49.46,159.90
             49.29,160.11 48.86,160.26 48.41,160.30
             48.41,160.30 47.96,160.33 47.96,160.33
             47.96,160.33 47.96,161.86 47.96,161.86
             47.96,161.86 54.77,161.86 54.77,161.86
             54.77,161.86 54.77,160.33 54.77,160.33
             54.77,160.33 54.32,160.30 54.32,160.30
             53.88,160.26 53.45,160.11 53.28,159.90
             53.11,159.72 53.05,159.44 53.05,158.73
             53.05,158.73 53.05,152.28 53.05,152.28
             53.05,151.57 53.11,151.29 53.28,151.10
             53.45,150.89 53.88,150.74 54.32,150.71
             54.32,150.71 54.77,150.67 54.77,150.67
             54.77,150.67 54.77,149.14 54.77,149.14
             54.77,149.14 47.96,149.14 47.96,149.14
             47.96,149.14 47.96,150.67 47.96,150.67
             47.96,150.67 48.41,150.71 48.41,150.71
             48.86,150.74 49.29,150.89 49.46,151.10
             49.63,151.29 49.68,151.57 49.68,152.28
             49.68,152.28 49.68,158.73 49.68,158.73 Z
           M 64.36,152.07
           C 64.36,152.07 62.90,152.07 62.90,152.07
             62.88,153.05 62.73,153.58 62.40,153.83
             62.17,153.99 61.85,154.05 61.00,154.05
             61.00,154.05 60.47,154.05 60.47,154.05
             60.47,154.05 60.47,152.50 60.47,152.50
             60.47,151.53 60.49,151.35 60.64,151.17
             60.82,150.94 61.47,150.81 62.43,150.81
             64.07,150.81 65.64,151.77 66.89,153.54
             66.89,153.54 68.16,152.92 68.16,152.92
             68.16,152.92 66.31,149.14 66.31,149.14
             66.31,149.14 55.46,149.14 55.46,149.14
             55.46,149.14 55.46,150.66 55.46,150.66
             55.46,150.66 55.83,150.70 55.83,150.70
             56.88,150.81 57.10,151.06 57.10,152.23
             57.10,152.23 57.10,158.73 57.10,158.73
             57.10,159.93 56.88,160.19 55.83,160.31
             55.83,160.31 55.46,160.34 55.46,160.34
             55.46,160.34 55.46,161.86 55.46,161.86
             55.46,161.86 66.63,161.86 66.63,161.86
             66.63,161.86 68.68,157.44 68.68,157.44
             68.68,157.44 67.37,156.82 67.37,156.82
             65.75,159.18 64.13,160.20 62.00,160.20
             61.17,160.20 60.68,160.05 60.55,159.74
             60.47,159.56 60.47,159.31 60.47,158.07
             60.47,158.07 60.47,155.84 60.47,155.84
             60.47,155.84 60.99,155.84 60.99,155.84
             61.64,155.84 62.03,155.93 62.27,156.16
             62.57,156.44 62.79,157.06 62.90,157.91
             62.90,157.91 64.36,157.91 64.36,157.91
             64.36,157.91 64.36,152.07 64.36,152.07 Z
           M 81.14,157.43
           C 81.14,157.43 79.86,156.74 79.86,156.74
             78.59,159.00 76.95,160.20 75.10,160.20
             74.54,160.20 74.15,160.07 74.04,159.84
             73.96,159.67 73.96,159.67 73.96,158.50
             73.96,158.50 73.96,152.28 73.96,152.28
             73.96,151.09 74.19,150.82 75.23,150.71
             75.23,150.71 75.60,150.68 75.60,150.68
             75.60,150.68 75.60,149.14 75.60,149.14
             75.60,149.14 68.95,149.14 68.95,149.14
             68.95,149.14 68.95,150.68 68.95,150.68
             68.95,150.68 69.32,150.71 69.32,150.71
             70.36,150.82 70.59,151.09 70.59,152.28
             70.59,152.28 70.59,158.74 70.59,158.74
             70.59,159.93 70.36,160.19 69.32,160.31
             69.32,160.31 68.95,160.34 68.95,160.34
             68.95,160.34 68.95,161.86 68.95,161.86
             68.95,161.86 79.21,161.86 79.21,161.86
             79.21,161.86 81.14,157.43 81.14,157.43 Z
           M 93.06,157.43
           C 93.06,157.43 91.77,156.74 91.77,156.74
             90.50,159.00 88.86,160.20 87.01,160.20
             86.46,160.20 86.06,160.07 85.95,159.84
             85.88,159.67 85.88,159.67 85.88,158.50
             85.88,158.50 85.88,152.28 85.88,152.28
             85.88,151.09 86.10,150.82 87.14,150.71
             87.14,150.71 87.52,150.68 87.52,150.68
             87.52,150.68 87.52,149.14 87.52,149.14
             87.52,149.14 80.86,149.14 80.86,149.14
             80.86,149.14 80.86,150.68 80.86,150.68
             80.86,150.68 81.24,150.71 81.24,150.71
             82.28,150.82 82.50,151.09 82.50,152.28
             82.50,152.28 82.50,158.74 82.50,158.74
             82.50,159.93 82.28,160.19 81.24,160.31
             81.24,160.31 80.86,160.34 80.86,160.34
             80.86,160.34 80.86,161.86 80.86,161.86
             80.86,161.86 91.12,161.86 91.12,161.86
             91.12,161.86 93.06,157.43 93.06,157.43 Z
           M 94.42,158.73
           C 94.42,159.44 94.36,159.72 94.19,159.90
             94.03,160.11 93.60,160.26 93.15,160.30
             93.15,160.30 92.70,160.33 92.70,160.33
             92.70,160.33 92.70,161.86 92.70,161.86
             92.70,161.86 99.51,161.86 99.51,161.86
             99.51,161.86 99.51,160.33 99.51,160.33
             99.51,160.33 99.06,160.30 99.06,160.30
             98.61,160.26 98.18,160.11 98.02,159.90
             97.85,159.72 97.79,159.44 97.79,158.73
             97.79,158.73 97.79,152.28 97.79,152.28
             97.79,151.57 97.85,151.29 98.02,151.10
             98.18,150.89 98.61,150.74 99.06,150.71
             99.06,150.71 99.51,150.67 99.51,150.67
             99.51,150.67 99.51,149.14 99.51,149.14
             99.51,149.14 92.70,149.14 92.70,149.14
             92.70,149.14 92.70,150.67 92.70,150.67
             92.70,150.67 93.15,150.71 93.15,150.71
             93.60,150.74 94.03,150.89 94.19,151.10
             94.36,151.29 94.42,151.57 94.42,152.28
             94.42,152.28 94.42,158.73 94.42,158.73 Z
           M 0.00,0.00
           C 0.00,0.00 0.00,167.00 0.00,167.00
             0.00,167.00 116.00,167.00 116.00,167.00
             116.00,167.00 116.00,0.00 116.00,0.00
             116.00,0.00 0.00,0.00 0.00,0.00 Z
           M 42.04,47.55
           C 41.69,47.12 40.03,44.99 39.64,44.96
             38.76,44.90 39.12,45.60 37.49,46.61
             37.49,46.61 35.97,46.89 35.97,46.89
             33.59,45.73 33.95,43.42 33.50,40.75
             33.50,40.75 33.27,38.62 33.27,38.62
             33.27,38.62 29.26,42.87 29.26,42.87
             28.75,43.43 28.17,44.26 27.43,44.52
             25.91,45.03 25.34,43.65 25.65,42.42
             26.12,40.59 26.58,40.47 28.44,38.74
             28.44,38.74 29.90,37.28 29.90,37.28
             30.97,35.72 31.69,35.47 32.12,33.94
             32.12,33.94 32.41,30.81 32.41,30.81
             32.41,30.81 32.60,26.12 32.60,26.12
             32.60,26.12 32.76,23.40 32.76,23.40
             32.76,23.40 32.99,20.82 32.99,20.82
             32.99,20.82 33.21,18.31 33.21,18.31
             33.21,18.31 33.39,16.74 33.39,16.74
             34.01,14.33 35.13,12.85 35.97,12.26
             36.83,12.16 37.65,11.96 38.44,12.26
             41.20,13.20 42.97,17.36 42.60,20.09
             42.22,22.92 40.56,26.54 39.17,29.02
             38.54,30.15 36.57,33.15 36.35,34.16
             36.10,35.04 36.34,35.95 36.35,36.84
             36.43,37.93 36.58,40.94 37.25,41.71
             38.00,42.56 38.77,41.76 38.79,40.86
             38.79,40.86 38.58,39.08 38.58,39.08
             38.60,37.82 39.35,32.09 39.73,31.03
             39.89,30.59 40.35,29.86 40.63,29.47
             41.47,28.31 43.35,26.61 44.92,27.31
             46.14,27.85 46.65,29.17 46.94,30.36
             47.67,33.42 46.04,36.41 44.36,38.86
             44.09,39.26 42.59,41.48 42.54,41.79
             42.33,42.96 44.78,44.71 44.66,46.21
             44.55,47.63 43.07,47.48 42.04,47.55 Z
           M 38.89,16.30
           C 38.36,17.21 38.42,17.03 37.89,18.31
             37.60,19.14 37.39,20.11 37.22,20.99
             36.81,23.21 36.32,25.67 36.87,27.91
             37.92,27.54 38.22,26.22 38.55,25.23
             39.23,23.20 40.12,18.25 39.34,16.30
             39.34,16.30 38.89,16.30 38.89,16.30 Z
           M 42.94,31.26
           C 41.97,32.92 41.43,34.95 42.04,36.84
             43.59,35.44 43.25,33.14 43.61,31.26
             43.61,31.26 42.94,31.26 42.94,31.26 Z
           M 32.15,80.15
           C 32.15,80.15 34.87,68.09 34.87,68.09
             34.87,68.09 35.37,66.31 35.37,66.31
             35.37,66.31 36.09,62.74 36.09,62.74
             36.09,62.74 37.45,57.16 37.45,57.16
             37.45,57.16 38.29,53.14 38.29,53.14
             38.29,53.14 38.78,51.57 38.78,51.57
             38.97,50.83 38.96,49.81 39.82,49.48
             40.76,49.12 41.22,49.89 41.34,50.68
             41.34,50.68 41.81,56.02 41.81,56.02
             41.81,56.02 41.89,58.88 41.89,58.88
             41.89,58.88 42.10,64.30 42.10,64.30
             42.10,64.30 42.40,70.10 42.40,70.10
             42.40,70.10 42.47,71.46 42.47,71.46
             42.47,71.46 42.59,73.90 42.59,73.90
             42.59,73.90 42.94,80.82 42.94,80.82
             42.94,80.82 43.13,84.55 43.13,84.55
             43.13,84.55 43.29,87.72 43.29,87.72
             43.29,87.72 43.37,90.42 43.37,90.42
             43.37,90.42 43.49,92.90 43.49,92.90
             43.49,92.90 43.82,99.13 43.82,99.13
             43.82,99.13 44.01,101.35 44.01,101.35
             44.01,101.35 44.29,109.18 44.29,109.18
             44.29,109.18 44.47,111.63 44.47,111.63
             44.47,111.63 44.76,117.66 44.76,117.66
             44.76,117.66 45.02,121.43 45.02,121.43
             45.15,122.45 45.21,123.46 45.05,124.52
             44.84,125.96 44.12,127.34 43.61,127.93
             43.10,128.28 42.46,128.63 41.85,128.46
             40.97,128.21 40.57,127.16 40.39,126.37
             40.39,126.37 39.79,119.22 39.79,119.22
             39.79,119.22 39.57,115.20 39.57,115.20
             39.57,115.20 39.34,108.51 39.34,108.51
             39.34,108.51 38.89,100.24 38.89,100.24
             38.89,100.24 38.46,93.55 38.46,93.55
             38.46,93.55 38.22,88.19 38.22,88.19
             38.22,88.19 37.83,84.43 37.83,84.43
             37.83,84.43 37.83,82.38 37.83,82.38
             37.83,82.38 37.65,80.82 37.65,80.82
             37.65,80.82 37.77,77.92 37.77,77.92
             37.77,77.92 37.07,80.60 37.07,80.60
             37.07,80.60 35.98,84.62 35.98,84.62
             35.98,84.62 35.65,86.34 35.65,86.34
             35.65,86.34 34.78,89.08 34.78,89.08
             34.78,89.08 34.30,91.31 34.30,91.31
             34.30,91.31 31.98,100.02 31.98,100.02
             31.98,100.02 31.14,104.26 31.14,104.26
             31.14,104.26 29.45,110.07 29.45,110.07
             27.78,109.51 28.34,109.27 28.06,107.61
             28.06,107.61 28.06,101.14 28.06,101.14
             28.06,101.14 28.06,82.38 28.06,82.38
             28.06,82.38 28.06,80.60 28.06,80.60
             28.06,80.60 28.06,78.36 28.06,78.36
             28.06,78.36 28.06,77.03 28.06,77.03
             28.03,75.33 27.67,74.08 28.06,72.34
             26.36,72.62 26.34,73.97 26.14,75.46
             26.14,75.46 25.48,78.81 25.48,78.81
             25.29,80.24 25.52,81.89 24.50,83.05
             24.94,83.93 24.25,86.51 23.99,87.52
             23.99,87.52 23.73,89.30 23.73,89.30
             23.73,89.30 23.22,91.98 23.22,91.98
             22.95,93.96 23.10,94.17 22.47,96.23
             22.47,96.23 21.12,103.60 21.12,103.60
             21.12,103.60 17.96,119.57 17.96,119.57
             17.96,119.57 17.28,123.46 17.28,123.46
             17.28,123.46 16.75,125.25 16.75,125.25
             16.65,125.69 16.62,126.16 16.44,126.58
             15.82,128.04 13.89,128.43 12.63,127.58
             11.38,126.75 10.77,125.37 10.84,123.91
             11.00,120.74 11.97,118.44 12.03,117.44
             12.05,117.05 11.98,116.70 11.91,116.32
             12.71,115.29 13.20,112.35 13.54,110.96
             13.54,110.96 16.13,99.57 16.13,99.57
             16.13,99.57 16.72,97.34 16.72,97.34
             16.72,97.34 17.90,91.98 17.90,91.98
             17.90,91.98 18.62,88.19 18.62,88.19
             18.62,88.19 20.54,80.60 20.54,80.60
             20.54,80.60 24.18,65.42 24.18,65.42
             24.18,65.42 25.55,59.39 25.55,59.39
             25.55,59.39 26.42,55.59 26.42,55.59
             26.42,55.59 26.98,53.58 26.98,53.58
             27.18,52.52 27.65,49.85 28.82,49.50
             30.70,48.92 31.46,52.09 31.47,53.36
             31.47,53.36 31.47,59.83 31.47,59.83
             31.47,59.83 31.70,63.63 31.70,63.63
             31.70,63.63 31.70,68.76 31.70,68.76
             31.70,68.76 31.92,73.68 31.92,73.68
             31.94,75.49 31.74,78.51 32.15,80.15 Z
           M 93.52,50.01
           C 94.11,50.64 95.05,51.20 95.29,52.03
             95.56,52.98 94.97,53.70 94.53,54.48
             94.53,54.48 92.51,58.72 92.51,58.72
             92.51,58.72 87.77,72.34 87.77,72.34
             87.33,73.88 86.18,77.18 86.10,78.59
             86.10,78.59 91.05,79.03 91.05,79.03
             91.91,79.04 93.88,78.84 94.55,79.20
             95.94,79.98 95.66,81.75 94.55,82.65
             93.87,83.23 93.26,83.27 92.40,83.28
             92.40,83.28 87.67,83.03 87.67,83.03
             87.03,82.94 86.07,82.69 85.49,83.03
             84.65,83.59 84.53,85.29 84.53,86.18
             84.53,86.18 84.53,90.42 84.53,90.42
             84.53,94.59 86.36,102.02 88.12,105.82
             88.12,105.82 88.57,107.17 88.57,107.17
             88.57,107.17 90.37,111.41 90.37,111.41
             90.37,111.41 91.72,114.53 91.72,114.53
             91.72,114.53 92.55,115.87 92.55,115.87
             92.55,115.87 93.64,117.66 93.64,117.66
             93.64,117.66 94.56,119.61 94.56,119.61
             94.56,119.61 96.77,123.11 96.77,123.11
             96.77,123.11 98.04,125.31 98.04,125.31
             98.65,126.25 100.56,128.37 99.99,129.45
             99.52,130.33 98.62,130.42 97.80,130.00
             97.24,129.72 94.20,127.03 93.71,126.52
             88.79,121.28 85.14,116.04 82.87,109.18
             80.40,101.75 79.79,95.05 79.81,87.30
             79.81,87.30 79.81,87.52 79.73,83.05
             79.82,81.66 79.81,83.28 79.96,80.91
             80.18,78.36 80.13,81.64 80.03,78.44
             81.38,71.89 80.03,78.59 81.38,71.89
             82.05,69.73 82.03,70.25 82.36,68.99
             82.36,68.99 83.93,64.30 83.93,64.30
             84.95,61.38 86.12,58.54 87.60,55.83
             87.60,55.83 90.37,51.13 90.37,51.13
             92.38,50.21 91.10,50.26 93.52,50.01 Z
           M 63.17,54.48
           C 64.38,56.57 64.51,58.59 64.52,60.95
             64.52,60.95 64.94,66.09 64.94,66.09
             64.94,66.09 65.03,68.54 65.03,68.54
             65.03,68.54 65.17,72.78 65.17,72.78
             65.17,72.78 65.17,74.12 65.17,74.12
             65.17,74.12 65.36,76.58 65.36,76.58
             65.36,76.58 65.36,77.70 65.36,77.70
             65.36,77.70 65.36,79.70 65.36,79.70
             65.36,79.70 65.36,84.62 65.36,84.62
             65.36,84.62 65.25,89.19 65.25,89.19
             65.25,89.19 65.19,95.11 65.19,95.11
             65.19,95.11 65.08,97.62 65.08,97.62
             65.08,97.62 64.99,100.28 64.99,100.28
             64.99,100.28 64.75,101.81 64.75,101.81
             64.75,101.81 64.25,106.91 64.25,106.91
             64.25,106.91 64.13,108.51 64.13,108.51
             64.13,108.51 63.91,109.84 63.91,109.84
             63.91,109.84 63.52,113.42 63.52,113.42
             63.52,113.42 63.06,115.65 63.06,115.65
             62.30,119.19 61.55,123.10 59.36,126.08
             57.78,128.24 55.70,129.59 53.12,127.89
             52.49,127.48 51.10,125.61 50.76,124.93
             50.76,124.93 50.15,123.24 50.15,123.24
             48.63,119.73 48.14,117.46 47.42,113.77
             47.42,113.77 46.74,110.74 46.74,110.74
             46.74,110.74 46.14,106.85 46.14,106.85
             46.14,106.85 45.77,102.25 45.77,102.25
             45.60,100.93 45.64,101.20 45.49,99.57
             45.49,99.57 45.06,94.89 45.06,94.89
             45.06,94.89 44.74,87.07 44.74,87.07
             44.74,87.07 44.74,75.91 44.74,75.91
             44.74,75.91 45.20,68.76 45.20,68.76
             45.38,64.95 45.81,61.13 46.46,57.38
             46.62,56.46 47.00,53.41 47.43,52.76
             48.24,51.55 50.34,51.84 50.80,52.54
             51.08,52.95 51.03,53.76 51.03,54.25
             51.03,54.25 51.03,55.82 51.03,55.82
             51.03,55.82 50.82,58.27 50.82,58.27
             50.82,58.27 50.48,64.52 50.48,64.52
             50.48,64.52 50.48,66.53 50.48,66.53
             50.48,66.53 50.35,68.54 50.35,68.54
             50.35,68.54 50.35,71.89 50.35,71.89
             50.35,71.89 50.10,74.41 50.10,74.41
             50.10,74.41 50.10,77.03 50.10,77.03
             50.10,77.03 49.91,79.70 49.91,79.70
             49.91,79.70 49.91,84.17 49.91,84.17
             49.91,84.17 49.91,93.99 49.91,93.99
             49.91,93.99 50.06,96.90 50.06,96.90
             50.06,96.90 50.51,104.65 50.51,104.65
             50.86,108.64 51.05,112.62 52.01,116.54
             52.37,118.02 54.04,123.05 56.34,120.92
             57.26,120.07 57.77,118.40 58.08,117.21
             58.97,113.83 58.44,115.16 58.76,112.49
             58.76,112.49 59.39,107.45 59.39,107.45
             59.39,107.45 59.62,102.48 59.62,102.48
             59.62,102.48 60.00,95.78 60.00,95.78
             60.00,95.78 60.00,93.55 60.00,93.55
             60.00,93.55 60.00,78.59 60.00,78.59
             60.00,78.59 59.84,75.92 59.84,75.92
             59.84,75.92 59.84,73.68 59.84,73.68
             59.84,73.68 59.84,71.89 59.84,71.89
             59.84,71.89 59.54,63.85 59.54,63.85
             59.54,63.85 59.54,60.50 59.54,60.50
             59.54,60.50 59.38,58.51 59.38,58.51
             59.35,56.11 58.77,54.36 61.15,54.10
             61.96,54.01 62.42,54.34 63.17,54.48 Z
           M 57.78,146.68
           C 57.49,145.12 57.52,145.49 57.61,144.90
             57.61,144.90 60.75,138.65 60.75,138.65
             61.08,137.93 60.75,138.59 62.22,135.80
             63.79,132.84 63.11,134.17 63.75,132.80
             63.75,132.80 66.23,127.26 66.23,127.26
             66.23,127.26 71.26,116.10 71.26,116.10
             72.25,113.31 74.13,107.47 74.29,104.49
             74.29,104.49 73.37,98.91 73.37,98.91
             73.37,98.91 71.28,91.09 71.28,91.09
             71.28,91.09 70.74,89.54 70.74,89.54
             70.74,89.54 70.23,87.07 70.23,87.07
             70.23,87.07 69.01,82.16 69.01,82.16
             68.72,80.89 69.07,82.33 68.34,79.54
             68.06,77.03 68.17,77.90 68.05,77.03
             67.73,74.66 67.67,74.06 67.67,71.67
             67.67,71.67 67.67,69.21 67.67,69.21
             67.67,65.04 70.02,59.23 72.38,55.82
             73.62,54.04 75.45,50.92 77.88,51.02
             78.25,51.03 79.17,51.12 79.44,51.35
             80.26,52.04 79.16,53.87 78.68,54.46
             75.65,58.17 74.60,59.75 73.14,64.30
             70.79,71.60 72.94,80.15 74.88,87.30
             74.88,87.30 76.34,92.21 76.34,92.21
             76.68,93.35 76.38,92.26 77.78,95.56
             78.91,100.75 78.60,99.03 78.86,100.69
             79.41,104.22 79.15,107.27 78.27,110.72
             76.67,116.98 73.73,122.70 70.77,128.41
             70.77,128.41 66.70,136.32 66.70,136.32
             66.70,136.32 60.47,146.65 60.47,146.65
             60.47,146.65 59.01,147.19 59.01,147.19
             59.01,147.19 57.78,146.68 57.78,146.68 Z" />
</svg>
