<?xml version="1.0" encoding="UTF-8" standalone="no"?>
<!DOCTYPE svg PUBLIC "-//W3C//DTD SVG 20010904//EN"
              "http://www.w3.org/TR/2001/REC-SVG-20010904/DTD/svg10.dtd">

<svg xmlns="http://www.w3.org/2000/svg"
     width="0.416667in" height="0.416667in"
     viewBox="0 0 30 30">
  <path id="Selection #1"
        fill="none" stroke="black" stroke-width="1"
        d="M 26.44,5.19
           C 33.44,13.41 29.58,26.68 19.00,29.44
             0.57,34.26 -8.67,7.45 11.00,0.56
             16.96,-0.47 22.29,0.31 26.44,5.19 Z
           M 9.47,15.42
           C 7.91,14.18 7.52,11.52 8.74,9.78
             10.23,7.65 12.32,8.07 14.39,8.07
             14.93,8.07 16.26,7.97 16.70,8.18
             16.70,8.18 15.65,9.03 15.65,9.03
             15.65,9.03 14.58,9.21 14.58,9.21
             16.00,10.20 15.93,12.98 15.00,14.36
             14.63,14.91 13.65,15.63 13.58,16.31
             13.50,17.04 14.63,18.03 15.06,18.45
             15.91,19.26 16.31,20.17 16.32,21.46
             16.32,22.00 16.33,22.33 16.18,22.84
             15.68,24.66 13.90,25.68 12.36,25.70
             12.36,25.70 11.02,25.70 11.02,25.70
             10.05,25.68 8.70,25.24 7.94,24.53
             7.70,24.31 7.47,24.04 7.32,23.75
             7.07,23.27 7.06,22.81 7.07,22.27
             7.11,20.62 8.35,19.43 9.57,18.91
             10.46,18.53 11.25,18.49 12.17,18.49
             11.69,17.59 11.57,17.11 11.88,16.08
             11.00,16.08 10.25,16.03 9.47,15.42 Z
           M 21.62,8.07
           C 21.62,8.07 21.62,11.50 21.62,11.50
             21.62,11.50 24.70,11.50 24.70,11.50
             24.70,11.50 24.70,12.53 24.70,12.53
             24.70,12.53 21.62,12.53 21.62,12.53
             21.62,12.53 21.62,16.08 21.62,16.08
             21.62,16.08 20.84,16.08 20.84,16.08
             20.84,16.08 20.84,12.53 20.84,12.53
             20.84,12.53 17.95,12.53 17.95,12.53
             17.95,12.53 17.95,11.50 17.95,11.50
             17.95,11.50 20.84,11.50 20.84,11.50
             20.84,11.50 20.84,8.07 20.84,8.07
             20.84,8.07 21.62,8.07 21.62,8.07 Z
           M 9.77,11.73
           C 9.78,13.42 10.85,15.56 12.46,15.38
             13.47,15.27 13.91,14.05 13.99,12.99
             14.12,11.21 12.96,8.86 11.31,8.91
             10.00,9.19 9.75,10.36 9.77,11.73 Z
           M 9.77,19.95
           C 9.53,20.15 9.32,20.38 9.15,20.66
             8.13,22.34 9.37,24.72 11.69,24.78
             12.25,24.80 12.99,24.68 13.52,24.47
             14.87,23.94 15.58,22.04 14.64,20.66
             14.44,20.38 14.17,20.13 13.91,19.91
             12.99,19.12 12.41,19.08 11.31,19.21
             10.73,19.34 10.25,19.54 9.77,19.95 Z" />
</svg>
