<?xml version="1.0" encoding="UTF-8" standalone="no"?>
<!DOCTYPE svg PUBLIC "-//W3C//DTD SVG 20010904//EN"
              "http://www.w3.org/TR/2001/REC-SVG-20010904/DTD/svg10.dtd">

<svg xmlns="http://www.w3.org/2000/svg"
     width="1.9in" height="1.54in"
     viewBox="0 0 190 154">
  <path id="Selection"
        fill="none" stroke="black" stroke-width="1"
        d="M 93.44,27.00
           C 98.09,11.39 112.75,0.39 129.00,0.01
             136.41,-0.16 142.34,0.94 149.00,4.27
             152.65,6.09 158.63,10.94 162.00,11.02
             167.70,11.17 177.89,4.74 184.00,3.00
             182.31,12.00 177.21,16.77 171.00,23.00
             171.00,23.00 189.00,18.00 189.00,18.00
             185.22,29.38 173.81,34.71 171.02,40.04
             169.65,42.67 170.03,47.02 170.00,50.00
             169.90,57.81 167.87,67.48 165.71,75.00
             156.04,108.64 132.10,135.91 99.00,147.95
             81.76,154.21 68.87,154.21 51.00,154.00
             38.95,153.86 25.01,149.72 14.00,145.00
             9.09,142.90 2.93,140.66 0.00,136.00
             0.00,136.00 10.00,136.66 10.00,136.66
             10.00,136.66 32.00,132.97 32.00,132.97
             32.00,132.97 55.00,122.00 55.00,122.00
             55.00,122.00 42.00,117.69 42.00,117.69
             31.64,113.02 23.15,104.44 21.00,93.00
             27.62,93.54 28.57,94.97 35.00,92.00
             16.82,88.59 7.38,71.24 7.00,54.00
             7.00,54.00 22.00,58.00 22.00,58.00
             18.59,54.58 14.97,51.22 12.53,47.00
             5.27,34.45 6.88,19.90 12.00,7.00
             12.00,7.00 32.00,24.50 32.00,24.50
             48.20,36.98 71.32,46.94 92.00,47.00
             92.00,40.15 91.46,33.64 93.44,27.00 Z
           M 170.00,23.00
           C 170.00,23.00 171.00,24.00 171.00,24.00
             171.00,24.00 171.00,23.00 171.00,23.00
             171.00,23.00 170.00,23.00 170.00,23.00 Z
           M 22.00,58.00
           C 22.00,58.00 23.00,59.00 23.00,59.00
             23.00,59.00 23.00,58.00 23.00,58.00
             23.00,58.00 22.00,58.00 22.00,58.00 Z" />
</svg>
